<svg width="1200" height="675" viewBox="0 0 1200 675" fill="none" xmlns="http://www.w3.org/2000/svg">
  <!-- Background -->
  <rect width="1200" height="675" rx="12" fill="#F8FAFC"/>
  
  <!-- Header -->
  <rect width="1200" height="64" fill="#FFFFFF"/>
  <rect x="32" y="20" width="160" height="24" rx="4" fill="#0EA5E9"/>
  <rect x="900" y="20" width="100" height="24" rx="12" fill="#E0F2FE"/>
  <rect x="1020" y="20" width="148" height="24" rx="12" fill="#0EA5E9"/>
  
  <!-- Sidebar -->
  <rect width="240" height="675" fill="#FFFFFF"/>
  <rect x="24" y="96" width="192" height="32" rx="6" fill="#E0F2FE"/>
  <rect x="24" y="144" width="192" height="24" rx="4" fill="#F1F5F9"/>
  <rect x="24" y="184" width="192" height="24" rx="4" fill="#F1F5F9"/>
  <rect x="24" y="224" width="192" height="24" rx="4" fill="#F1F5F9"/>
  <rect x="24" y="264" width="192" height="24" rx="4" fill="#F1F5F9"/>
  
  <!-- Main Content -->
  <rect x="264" y="88" width="300" height="40" rx="4" fill="#0F172A"/>
  <rect x="264" y="136" width="200" height="24" rx="4" fill="#64748B"/>
  
  <!-- Stats Cards -->
  <rect x="264" y="184" width="280" height="120" rx="8" fill="#FFFFFF" stroke="#E2E8F0"/>
  <rect x="284" y="204" width="120" height="24" rx="4" fill="#0EA5E9"/>
  <rect x="284" y="240" width="180" height="40" rx="4" fill="#F1F5F9"/>
  
  <rect x="564" y="184" width="280" height="120" rx="8" fill="#FFFFFF" stroke="#E2E8F0"/>
  <rect x="584" y="204" width="120" height="24" rx="4" fill="#0EA5E9"/>
  <rect x="584" y="240" width="180" height="40" rx="4" fill="#F1F5F9"/>
  
  <rect x="864" y="184" width="280" height="120" rx="8" fill="#FFFFFF" stroke="#E2E8F0"/>
  <rect x="884" y="204" width="120" height="24" rx="4" fill="#0EA5E9"/>
  <rect x="884" y="240" width="180" height="40" rx="4" fill="#F1F5F9"/>
  
  <!-- Chart Section -->
  <rect x="264" y="324" width="580" height="320" rx="8" fill="#FFFFFF" stroke="#E2E8F0"/>
  <rect x="284" y="344" width="160" height="24" rx="4" fill="#0F172A"/>
  <rect x="284" y="380" width="120" height="16" rx="4" fill="#64748B"/>
  
  <!-- Chart Visualization -->
  <path d="M284 560 L284 460 L344 500 L404 420 L464 480 L524 440 L584 460 L644 420 L704 480 L764 440 L824 460" stroke="#0EA5E9" stroke-width="3" fill="none"/>
  <circle cx="344" cy="500" r="6" fill="#0EA5E9"/>
  <circle cx="404" cy="420" r="6" fill="#0EA5E9"/>
  <circle cx="464" cy="480" r="6" fill="#0EA5E9"/>
  <circle cx="524" cy="440" r="6" fill="#0EA5E9"/>
  <circle cx="584" cy="460" r="6" fill="#0EA5E9"/>
  <circle cx="644" cy="420" r="6" fill="#0EA5E9"/>
  <circle cx="704" cy="480" r="6" fill="#0EA5E9"/>
  <circle cx="764" cy="440" r="6" fill="#0EA5E9"/>
  <circle cx="824" cy="460" r="6" fill="#0EA5E9"/>
  
  <!-- Recent Activity -->
  <rect x="864" y="324" width="280" height="320" rx="8" fill="#FFFFFF" stroke="#E2E8F0"/>
  <rect x="884" y="344" width="160" height="24" rx="4" fill="#0F172A"/>
  
  <rect x="884" y="384" width="240" height="40" rx="4" fill="#F8FAFC"/>
  <rect x="884" y="434" width="240" height="40" rx="4" fill="#F8FAFC"/>
  <rect x="884" y="484" width="240" height="40" rx="4" fill="#F8FAFC"/>
  <rect x="884" y="534" width="240" height="40" rx="4" fill="#F8FAFC"/>
  <rect x="884" y="584" width="240" height="40" rx="4" fill="#F8FAFC"/>
</svg> 